# xmcd CD database file
#
# Track frame offsets:
#	150
#	13487
#	25098
#	41636
#	57970
#	73710
#	84069
#	97458
#	113850
#	123294
#	137048
#	154168
#
# Disc length: 2278 seconds
#
# Revision: 1
# Processed by: cddbd v1.5.2PL0 Copyright (c) Steve Scherf et al.
# Submitted via: CDex 1.70beta2
#
DISCID=a308e40c
DTITLE=Rita Engebretsen and Helge Borglund - Frem Fra Glemselen  - På Oppfordring
DYEAR=2000
DGENRE=Schillingsviser
TTITLE0=Rita Engebretsen and Helge Borglund - Barnetro
TTITLE1=Helge Borglund - Piken I Dalen
TTITLE2=Rita Engebretsen - Per Olsens Sørgelige Skjebne
TTITLE3=Rita Engebretsen and Helge Borglund - Frøken, Gi Meg Himmelens Nummer
TTITLE4=Rita Engebretsen - De Tusen Sjøers Land
TTITLE5=Helge Borglund - Spillemannen
TTITLE6=Rita Engebretsen and Helge Borglund - Svarta Bjørn
TTITLE7=Rita Engebretsen - Vesle Daniel
TTITLE8=Helge Borglund - En Sjømanns Brud
TTITLE9=Rita Engebretsen - Mor, Kjære Mor
TTITLE10=Rita Engebretsen and Helge Borglund - Elin Og Herremannen
TTITLE11=Helge Borglund - Cowboyens Avskjed
EXTD=YEAR: 2000
EXTT0=
EXTT1=
EXTT2=
EXTT3=
EXTT4=
EXTT5=
EXTT6=
EXTT7=
EXTT8=
EXTT9=
EXTT10=
EXTT11=
PLAYORDER=
